<svg xmlns="http://www.w3.org/2000/svg" xmlns:xlink="http://www.w3.org/1999/xlink" version="1.1" width="595.32pt" height="841.92pt" viewBox="0 0 595.32 841.92">
<defs>
<clipPath id="clip_246">
<path transform="matrix(1,0,0,-1,0,841.92)" d="M.000008871 0H595.32V841.92H.000008871Z" fill-rule="evenodd"/>
</clipPath>
<clipPath id="clip_247">
<path transform="matrix(1,0,0,-1,0,841.92)" d="M.000008871 0H595.32V841.92H.000008871Z" fill-rule="evenodd"/>
</clipPath>
<clipPath id="clip_248">
<path transform="matrix(1,0,0,-1,0,841.92)" d="M.000008871 0H595.32V841.92H.000008871Z" fill-rule="evenodd"/>
</clipPath>
<clipPath id="clip_249">
<path transform="matrix(1,0,0,-1,0,841.92)" d="M.000008871 0H595.32V841.92H.000008871Z" fill-rule="evenodd"/>
</clipPath>
<clipPath id="clip_250">
<path transform="matrix(1,0,0,-1,0,841.92)" d="M.000008871 0H595.32V841.92H.000008871Z" fill-rule="evenodd"/>
</clipPath>
<clipPath id="clip_251">
<path transform="matrix(1,0,0,-1,0,841.92)" d="M.000008871 0H595.32V841.92H.000008871Z" fill-rule="evenodd"/>
</clipPath>
<clipPath id="clip_252">
<path transform="matrix(1,0,0,-1,0,841.92)" d="M.000008871 0H595.32V841.92H.000008871Z" fill-rule="evenodd"/>
</clipPath>
<clipPath id="clip_253">
<path transform="matrix(1,0,0,-1,0,841.92)" d="M.000008871 0H595.32V841.92H.000008871Z" fill-rule="evenodd"/>
</clipPath>
<clipPath id="clip_254">
<path transform="matrix(1,0,0,-1,0,841.92)" d="M.000008871 0H595.32V841.92H.000008871Z" fill-rule="evenodd"/>
</clipPath>
<clipPath id="clip_255">
<path transform="matrix(1,0,0,-1,0,841.92)" d="M.000008871 0H595.32V841.92H.000008871Z" fill-rule="evenodd"/>
</clipPath>
<clipPath id="clip_256">
<path transform="matrix(1,0,0,-1,0,841.92)" d="M.000008871 0H595.32V841.92H.000008871Z" fill-rule="evenodd"/>
</clipPath>
<clipPath id="clip_257">
<path transform="matrix(1,0,0,-1,0,841.92)" d="M.000008871 0H595.32V841.92H.000008871Z" fill-rule="evenodd"/>
</clipPath>
<clipPath id="clip_258">
<path transform="matrix(1,0,0,-1,0,841.92)" d="M.000008871 0H595.32V841.92H.000008871Z" fill-rule="evenodd"/>
</clipPath>
<clipPath id="clip_259">
<path transform="matrix(1,0,0,-1,0,841.92)" d="M.000008871 0H595.32V841.92H.000008871Z" fill-rule="evenodd"/>
</clipPath>
<clipPath id="clip_260">
<path transform="matrix(1,0,0,-1,0,841.92)" d="M.000008871 0H595.32V841.92H.000008871Z" fill-rule="evenodd"/>
</clipPath>
<clipPath id="clip_261">
<path transform="matrix(1,0,0,-1,0,841.92)" d="M.000008871 0H595.32V841.92H.000008871Z" fill-rule="evenodd"/>
</clipPath>
<clipPath id="clip_262">
<path transform="matrix(1,0,0,-1,0,841.92)" d="M.000008871 0H595.32V841.92H.000008871Z" fill-rule="evenodd"/>
</clipPath>
<clipPath id="clip_263">
<path transform="matrix(1,0,0,-1,0,841.92)" d="M.000008871 0H595.32V841.92H.000008871Z" fill-rule="evenodd"/>
</clipPath>
<clipPath id="clip_264">
<path transform="matrix(1,0,0,-1,0,841.92)" d="M.000008871 0H595.32V841.92H.000008871Z" fill-rule="evenodd"/>
</clipPath>
<clipPath id="clip_265">
<path transform="matrix(1,0,0,-1,0,841.92)" d="M.000008871 0H595.32V841.92H.000008871Z" fill-rule="evenodd"/>
</clipPath>
<clipPath id="clip_266">
<path transform="matrix(1,0,0,-1,0,841.92)" d="M.000008871 0H595.32V841.92H.000008871Z" fill-rule="evenodd"/>
</clipPath>
<clipPath id="clip_267">
<path transform="matrix(1,0,0,-1,0,841.92)" d="M.000008871 0H595.32V841.92H.000008871Z" fill-rule="evenodd"/>
</clipPath>
<clipPath id="clip_268">
<path transform="matrix(1,0,0,-1,0,841.92)" d="M.000008871 0H595.32V841.92H.000008871Z" fill-rule="evenodd"/>
</clipPath>
<clipPath id="clip_269">
<path transform="matrix(1,0,0,-1,0,841.92)" d="M.000008871 0H595.32V841.92H.000008871Z" fill-rule="evenodd"/>
</clipPath>
<clipPath id="clip_270">
<path transform="matrix(1,0,0,-1,0,841.92)" d="M.000008871 0H595.32V841.92H.000008871Z" fill-rule="evenodd"/>
</clipPath>
<clipPath id="clip_271">
<path transform="matrix(1,0,0,-1,0,841.92)" d="M.000008871 0H595.32V841.92H.000008871Z" fill-rule="evenodd"/>
</clipPath>
<clipPath id="clip_272">
<path transform="matrix(1,0,0,-1,0,841.92)" d="M.000008871 0H595.32V841.92H.000008871Z" fill-rule="evenodd"/>
</clipPath>
<clipPath id="clip_273">
<path transform="matrix(1,0,0,-1,0,841.92)" d="M.000008871 0H595.32V841.92H.000008871Z" fill-rule="evenodd"/>
</clipPath>
<clipPath id="clip_274">
<path transform="matrix(1,0,0,-1,0,841.92)" d="M.000008871 0H595.32V841.92H.000008871Z" fill-rule="evenodd"/>
</clipPath>
<clipPath id="clip_275">
<path transform="matrix(1,0,0,-1,0,841.92)" d="M.000008871 0H595.32V841.92H.000008871Z" fill-rule="evenodd"/>
</clipPath>
<clipPath id="clip_276">
<path transform="matrix(1,0,0,-1,0,841.92)" d="M.000008871 0H595.32V841.92H.000008871Z" fill-rule="evenodd"/>
</clipPath>
<clipPath id="clip_277">
<path transform="matrix(1,0,0,-1,0,841.92)" d="M.000008871 0H595.32V841.92H.000008871Z" fill-rule="evenodd"/>
</clipPath>
<clipPath id="clip_278">
<path transform="matrix(1,0,0,-1,0,841.92)" d="M.000008871 0H595.32V841.92H.000008871Z" fill-rule="evenodd"/>
</clipPath>
<clipPath id="clip_279">
<path transform="matrix(1,0,0,-1,0,841.92)" d="M.000008871 0H595.32V841.92H.000008871Z" fill-rule="evenodd"/>
</clipPath>
<clipPath id="clip_280">
<path transform="matrix(1,0,0,-1,0,841.92)" d="M.000008871 0H595.32V841.92H.000008871Z" fill-rule="evenodd"/>
</clipPath>
<clipPath id="clip_281">
<path transform="matrix(1,0,0,-1,0,841.92)" d="M.000008871 0H595.32V841.92H.000008871Z" fill-rule="evenodd"/>
</clipPath>
<clipPath id="clip_282">
<path transform="matrix(1,0,0,-1,0,841.92)" d="M.000008871 0H595.32V841.92H.000008871Z" fill-rule="evenodd"/>
</clipPath>
<clipPath id="clip_283">
<path transform="matrix(1,0,0,-1,0,841.92)" d="M.000008871 0H595.32V841.92H.000008871Z" fill-rule="evenodd"/>
</clipPath>
<clipPath id="clip_284">
<path transform="matrix(1,0,0,-1,0,841.92)" d="M.000008871 0H595.32V841.92H.000008871Z" fill-rule="evenodd"/>
</clipPath>
<clipPath id="clip_285">
<path transform="matrix(1,0,0,-1,0,841.92)" d="M.000008871 0H595.32V841.92H.000008871Z" fill-rule="evenodd"/>
</clipPath>
<clipPath id="clip_286">
<path transform="matrix(1,0,0,-1,0,841.92)" d="M.000008871 0H595.32V841.92H.000008871Z" fill-rule="evenodd"/>
</clipPath>
<clipPath id="clip_287">
<path transform="matrix(1,0,0,-1,0,841.92)" d="M.000008871 0H595.32V841.92H.000008871Z" fill-rule="evenodd"/>
</clipPath>
<clipPath id="clip_288">
<path transform="matrix(1,0,0,-1,0,841.92)" d="M.000008871 0H595.32V841.92H.000008871Z" fill-rule="evenodd"/>
</clipPath>
<clipPath id="clip_289">
<path transform="matrix(1,0,0,-1,0,841.92)" d="M.000008871 0H595.32V841.92H.000008871Z" fill-rule="evenodd"/>
</clipPath>
<clipPath id="clip_290">
<path transform="matrix(1,0,0,-1,0,841.92)" d="M.000008871 0H595.32V841.92H.000008871Z" fill-rule="evenodd"/>
</clipPath>
<clipPath id="clip_291">
<path transform="matrix(1,0,0,-1,0,841.92)" d="M.000008871 0H595.32V841.92H.000008871Z" fill-rule="evenodd"/>
</clipPath>
<clipPath id="clip_292">
<path transform="matrix(1,0,0,-1,0,841.92)" d="M.000008871 0H595.32V841.92H.000008871Z" fill-rule="evenodd"/>
</clipPath>
<clipPath id="clip_293">
<path transform="matrix(1,0,0,-1,0,841.92)" d="M.000008871 0H595.32V841.92H.000008871Z" fill-rule="evenodd"/>
</clipPath>
<clipPath id="clip_294">
<path transform="matrix(1,0,0,-1,0,841.92)" d="M.000008871 0H595.32V841.92H.000008871Z" fill-rule="evenodd"/>
</clipPath>
</defs>
<g>
<path transform="matrix(1,0,0,-1,0,841.92)" d="M70.824 752.62H379.394V771.124H70.824Z" fill="#faf9f8" fill-rule="evenodd"/>
<g clip-path="url(#clip_246)">
<text fill="#004b7a" xml:space="preserve" transform="matrix(1 0 -0 1 0 841.92)" font-size="15.96" font-family="ArialMT"><tspan y="-755.98" x="70.824 82.34712 95.6418 100.07868 108.952449 117.82621 126.699977 131.13686 140.04254 148.9163 157.79007 162.33867 172.09023 180.96399 186.32656 199.62123 204.0581 212.93187 221.80564 227.12032 231.55719 240.43096 245.82544 257.34858 266.22233 271.537 276.05369 284.92744 289.36433 298.23808 307.2395 311.6764 323.19953 332.07328 340.10118 348.9749 352.56593 357.0028 365.87657 370.31346">Umfang und Form der erwarteten Resultate</tspan></text>
</g>
<g clip-path="url(#clip_247)">
<text fill="#004b7a" xml:space="preserve" transform="matrix(1 0 -0 1 0 841.92)" font-size="15.96" font-family="ArialMT"><tspan y="-755.98" x="379.39"> </tspan></text>
</g>
<g clip-path="url(#clip_248)">
<text xml:space="preserve" transform="matrix(1 0 -0 1 0 841.92)" font-size="11.04" font-family="ArialMT"><tspan y="-740.74" x="70.824 78.73968 81.13536 87.2736 95.76336 103.08288 106.79232 112.93056 119.035678 125.17391 131.27902 133.6747 139.1947 144.7147 150.85295 159.34272 165.48096 171.46465 175.06368 183.57552 190.89504 194.60448 200.74272 206.84784 209.24352 212.3568 220.7472 224.34622 232.9795 239.11775 245.22287 247.61855 250.01422 255.53423 261.67247 267.7776 273.91584 282.4056 288.54386 294.649 298.24806 306.63847 313.95799 320.09623 323.16535 326.31175 334.22743 340.36567 344.042 350.06983 358.58168 360.97734 367.11558 372.63557 375.02018 378.02305 386.53489 394.45057 400.5888 406.1088 412.21394 421.44337 427.43809 433.57633 436.64546 442.7837 445.90803 448.30369 454.44194 460.54707 463.54994 472.06178 477.58177 483.72 491.62464 494.0203 500.15855 508.64833 514.78659 520.6488">Die Ergebnisse der Arbeit (Quellcode der Software inkl. Dokumentation, sowie der</tspan></text>
</g>
<g clip-path="url(#clip_249)">
<text xml:space="preserve" transform="matrix(1 0 -0 1 0 841.92)" font-size="11.04" font-family="ArialMT"><tspan y="-740.74" x="524.5"> </tspan></text>
</g>
<g clip-path="url(#clip_250)">
<text xml:space="preserve" transform="matrix(1 0 -0 1 0 841.92)" font-size="11.04" font-family="ArialMT"><tspan y="-727.18" x="70.824 78.14352 81.85296 87.991199 90.48624 96.62447 102.00095 105.114238 111.25247 117.35759 121.06703 123.462718 128.98271 134.97743 138.09072 141.68975 144.80303 152.7187 158.85695 162.53327 168.67151 174.80976 180.948 184.01712 190.03392 196.17217 202.27729 205.39057 212.71009 216.41953 222.41425 224.92034 231.05858 236.57859 239.6477 245.78595 251.80275 254.91603 261.05427 263.43888 265.83454 268.2302 274.36845 277.43757 283.5758 289.71406 292.81629 298.33628 304.47453 308.05149">Projektbericht) werden den Projektbeteiligten zur </tspan></text>
</g>
<g clip-path="url(#clip_251)">
<text xml:space="preserve" transform="matrix(1 0 -0 1 0 841.92)" font-size="11.04" font-family="ArialMT"><tspan y="-727.18" x="311.21 319.12568 325.26393 327.64854 330.7618 336.90007 340.5764 346.71464 352.85289 355.9551 363.8708 370.00904 372.98985 378.50984 384.64808 390.7532 396.89146 399.96058 405.48057 411.5084 415.21784">weiteren Nutzung zur </tspan></text>
</g>
<g clip-path="url(#clip_252)">
<text xml:space="preserve" transform="matrix(1 0 -0 1 0 841.92)" font-size="11.04" font-family="ArialMT"><tspan y="-727.18" x="418.39 425.70954 431.70426 435.4137 438.52699 444.66523 450.77037 456.9086 463.01374">Verf&#x00fc;gung</tspan></text>
</g>
<g clip-path="url(#clip_253)">
<text xml:space="preserve" transform="matrix(1 0 -0 1 0 841.92)" font-size="11.04" font-family="ArialMT"><tspan y="-727.18" x="469.06"> </tspan></text>
</g>
<g clip-path="url(#clip_254)">
<text xml:space="preserve" transform="matrix(1 0 -0 1 0 841.92)" font-size="11.04" font-family="ArialMT"><tspan y="-727.18" x="472.18 478.31825 484.42338 489.94337 493.05665 499.1949 501.5795 503.97517 506.97804">gestellt.</tspan></text>
</g>
<g clip-path="url(#clip_255)">
<text xml:space="preserve" transform="matrix(1 0 -0 1 0 841.92)" font-size="11.04" font-family="ArialMT"><tspan y="-727.18" x="509.98"> </tspan></text>
</g>
<path transform="matrix(1,0,0,-1,0,841.92)" d="M70.824 693.46H270.044V711.94H70.824Z" fill="#faf9f8" fill-rule="evenodd"/>
<g clip-path="url(#clip_256)">
<text fill="#004b7a" xml:space="preserve" transform="matrix(1 0 -0 1 0 841.92)" font-size="15.96" font-family="ArialMT"><tspan y="-696.82" x="70.824 81.469318 90.34308 94.77996 103.685649 112.55941 121.433177">Anfangs</tspan></text>
</g>
<g clip-path="url(#clip_257)">
<text fill="#004b7a" xml:space="preserve" transform="matrix(1 0 -0 1 0 841.92)" font-size="15.96" font-family="ArialMT"><tspan y="-696.82" x="129.5">-</tspan></text>
</g>
<g clip-path="url(#clip_258)">
<text fill="#004b7a" xml:space="preserve" transform="matrix(1 0 -0 1 0 841.92)" font-size="15.96" font-family="ArialMT"><tspan y="-696.82" x="134.78"> </tspan></text>
</g>
<g clip-path="url(#clip_259)">
<text fill="#004b7a" xml:space="preserve" transform="matrix(1 0 -0 1 0 841.92)" font-size="15.96" font-family="ArialMT"><tspan y="-696.82" x="139.22 148.09377 156.96753 165.8413 170.27817 180.97138 189.95687 198.83063 207.70439 216.57816 225.45192 229.8888 238.76256 244.07724 257.37193 260.97889">und Abgabetermin</tspan></text>
</g>
<g clip-path="url(#clip_260)">
<text fill="#004b7a" xml:space="preserve" transform="matrix(1 0 -0 1 0 841.92)" font-size="15.96" font-family="ArialMT"><tspan y="-696.82" x="270.05"> </tspan></text>
</g>
<path transform="matrix(1,0,0,-1,0,841.92)" d="M87.384 677.62H525.93399V692.02H87.384Z" fill="#ffffff" fill-rule="evenodd"/>
<path transform="matrix(1,0,0,-1,0,841.92)" d="M106.82 678.58H365.59V692.02H106.82Z" fill="#faf9f8" fill-rule="evenodd"/>
<g clip-path="url(#clip_261)">
<text xml:space="preserve" transform="matrix(1 0 -0 1 0 841.92)" font-size="11.04" font-family="SymbolMT"><tspan y="-680.86" x="88.824">&#x2022;</tspan></text>
</g>
<g clip-path="url(#clip_262)">
<text xml:space="preserve" transform="matrix(1 0 -0 1 0 841.92)" font-size="11.04" font-family="ArialMT"><tspan y="-680.86" x="93.864"> </tspan></text>
</g>
<g clip-path="url(#clip_263)">
<text xml:space="preserve" transform="matrix(1 0 -0 1 0 841.92)" font-size="11.04" font-family="ArialMT"><tspan y="-680.86" x="106.82 114.13952 117.2528 123.39104 127.06736 130.09232 133.2056 139.34384 145.44896 149.04799 152.16127 159.48079 165.61904 171.72415 175.4336 181.57184 187.67696 189.96224 193.07552 199.21376 205.31888 211.45713 214.43793">Start der Bearbeitung: </tspan></text>
</g>
<g clip-path="url(#clip_264)">
<text xml:space="preserve" transform="matrix(1 0 -0 1 0 841.92)" font-size="11.04" font-family="Arial" font-weight="bold"><tspan y="-680.86" x="217.61 226.72904 233.47447 240.1647 243.87415 250.01239 256.71369 259.71656">Montag, </tspan></text>
</g>
<g clip-path="url(#clip_265)">
<text xml:space="preserve" transform="matrix(1 0 -0 1 0 841.92)" font-size="11.04" font-family="Arial" font-weight="bold"><tspan y="-680.86" x="262.85 268.97004">18</tspan></text>
</g>
<g clip-path="url(#clip_266)">
<text xml:space="preserve" transform="matrix(1 0 -0 1 0 841.92)" font-size="11.04" font-family="Arial" font-weight="bold"><tspan y="-680.86" x="275.09 278.09004">. </tspan></text>
</g>
<g clip-path="url(#clip_267)">
<text xml:space="preserve" transform="matrix(1 0 -0 1 0 841.92)" font-size="11.04" font-family="Arial" font-weight="bold"><tspan y="-680.86" x="281.21 288.5295 294.66777 301.36906 305.0785 311.21675 321.0313 327.63325 333.77149">September</tspan></text>
</g>
<g clip-path="url(#clip_268)">
<text xml:space="preserve" transform="matrix(1 0 -0 1 0 841.92)" font-size="11.04" font-family="Arial" font-weight="bold"><tspan y="-680.86" x="338.11"> </tspan></text>
</g>
<g clip-path="url(#clip_269)">
<text xml:space="preserve" transform="matrix(1 0 -0 1 0 841.92)" font-size="11.04" font-family="Arial" font-weight="bold"><tspan y="-680.86" x="341.23 347.22474 353.36299 359.4681">2023</tspan></text>
</g>
<g clip-path="url(#clip_270)">
<text xml:space="preserve" transform="matrix(1 0 -0 1 0 841.92)" font-size="11.04" font-family="ArialMT"><tspan y="-680.86" x="365.59"> </tspan></text>
</g>
<g clip-path="url(#clip_271)">
</g>
<path transform="matrix(1,0,0,-1,0,841.92)" d="M87.384 663.34H525.93399V677.62008H87.384Z" fill="#ffffff" fill-rule="evenodd"/>
<path transform="matrix(1,0,0,-1,0,841.92)" d="M106.82 664.18H389.35V677.62H106.82Z" fill="#faf9f8" fill-rule="evenodd"/>
<g clip-path="url(#clip_272)">
<text xml:space="preserve" transform="matrix(1 0 -0 1 0 841.92)" font-size="11.04" font-family="SymbolMT"><tspan y="-666.46" x="88.824">&#x2022;</tspan></text>
</g>
<g clip-path="url(#clip_273)">
<text xml:space="preserve" transform="matrix(1 0 -0 1 0 841.92)" font-size="11.04" font-family="ArialMT"><tspan y="-666.46" x="93.864"> </tspan></text>
</g>
<g clip-path="url(#clip_274)">
<text xml:space="preserve" transform="matrix(1 0 -0 1 0 841.92)" font-size="11.04" font-family="ArialMT"><tspan y="-666.46" x="106.82 114.13952 120.277759 126.38287 132.52112 138.62624">Abgabe</tspan></text>
</g>
<g clip-path="url(#clip_275)">
<text xml:space="preserve" transform="matrix(1 0 -0 1 0 841.92)" font-size="11.04" font-family="ArialMT"><tspan y="-666.46" x="144.74"> </tspan></text>
</g>
<g clip-path="url(#clip_276)">
<text xml:space="preserve" transform="matrix(1 0 -0 1 0 841.92)" font-size="11.04" font-family="ArialMT"><tspan y="-666.46" x="147.86 153.99825 160.10337 163.8128 166.92609 174.2456">der SA</tspan></text>
</g>
<g clip-path="url(#clip_277)">
<text xml:space="preserve" transform="matrix(1 0 -0 1 0 841.92)" font-size="11.04" font-family="ArialMT"><tspan y="-666.46" x="181.46 184.58003">: </tspan></text>
</g>
<g clip-path="url(#clip_278)">
<text xml:space="preserve" transform="matrix(1 0 -0 1 0 841.92)" font-size="11.04" font-family="Arial" font-weight="bold"><tspan y="-666.46" x="187.7 194.30191 198.59647 204.73471 207.7376 211.44704 217.58528 224.28656 227.28945">Freitag, </tspan></text>
</g>
<g clip-path="url(#clip_279)">
<text xml:space="preserve" transform="matrix(1 0 -0 1 0 841.92)" font-size="11.04" font-family="Arial" font-weight="bold"><tspan y="-666.46" x="230.45 236.57004">22</tspan></text>
</g>
<g clip-path="url(#clip_280)">
<text xml:space="preserve" transform="matrix(1 0 -0 1 0 841.92)" font-size="11.04" font-family="Arial" font-weight="bold"><tspan y="-666.46" x="242.69 245.69002">. </tspan></text>
</g>
<g clip-path="url(#clip_281)">
<text xml:space="preserve" transform="matrix(1 0 -0 1 0 841.92)" font-size="11.04" font-family="Arial" font-weight="bold"><tspan y="-666.46" x="248.81 256.72569 262.86393 268.3839 274.48905 284.30363 291.04908 297.18733 301.37147 304.48475 310.623 316.72813 322.86637">Dezember 2023</tspan></text>
</g>
<g clip-path="url(#clip_282)">
<text xml:space="preserve" transform="matrix(1 0 -0 1 0 841.92)" font-size="11.04" font-family="Arial" font-weight="bold"><tspan y="-666.46" x="328.87"> </tspan></text>
</g>
<g clip-path="url(#clip_283)">
<text xml:space="preserve" transform="matrix(1 0 -0 1 0 841.92)" font-size="11.04" font-family="Arial" font-weight="bold"><tspan y="-666.46" x="331.99 335.69944 341.83769 347.82136 351.5308 357.66905 363.77418 366.88746 374.80314 381.54859 385.7217">(17:00 Uhr)</tspan></text>
</g>
<g clip-path="url(#clip_284)">
<text xml:space="preserve" transform="matrix(1 0 -0 1 0 841.92)" font-size="11.04" font-family="ArialMT"><tspan y="-666.46" x="389.35"> </tspan></text>
</g>
<g clip-path="url(#clip_285)">
</g>
<path transform="matrix(1,0,0,-1,0,841.92)" d="M70.824 632.86H378.55403V651.33999H70.824Z" fill="#faf9f8" fill-rule="evenodd"/>
<g clip-path="url(#clip_286)">
<text fill="#004b7a" xml:space="preserve" transform="matrix(1 0 -0 1 0 841.92)" font-size="15.96" font-family="ArialMT"><tspan y="-636.22" x="70.824 80.57556 89.449329 92.99245 101.86621 109.92602 117.9539 121.54491 130.41867 139.29244 143.72931 155.25243 158.84343 162.43444 166.8713 174.89919 188.19387 191.73699 196.17386 200.61074 209.4845 213.02762 217.4645 226.33826 235.21202 244.1177 248.55458 260.0777 268.95146 272.54246 276.97935 285.8531 291.16777 300.0415 304.57417 315.21949 324.09324 328.53013 333.8448 342.71855 351.5923 360.46604 369.33979">Zul&#x00e4;ssige Hilfsmittel und weitere Betreuung</tspan></text>
</g>
<g clip-path="url(#clip_287)">
<text fill="#004b7a" xml:space="preserve" transform="matrix(1 0 -0 1 0 841.92)" font-size="15.96" font-family="ArialMT"><tspan y="-636.22" x="378.55"> </tspan></text>
</g>
<g clip-path="url(#clip_288)">
<text xml:space="preserve" transform="matrix(1 0 -0 1 0 841.92)" font-size="11.04" font-family="ArialMT"><tspan y="-620.98" x="70.824 78.14352 80.5392 82.93488 89.07312 92.639049 98.15904 104.29728 107.9736 115.94448 122.03856 128.1768 134.28192 140.42017 143.48929 149.62754 155.76578 159.35378 167.26946 169.66513 172.0608 175.17409 180.69409 189.92354 192.20882 195.3221 198.43538 204.57363 206.95827 210.54627 218.46195 224.60019 228.2765 234.41475 240.553 246.53668 250.12468 252.52036 258.6586 262.22453 268.36277 274.4679 278.06697 281.65498 288.9745 292.68394 298.82218 304.9273 307.32298 310.43626 313.9028 320.04106 326.14619 329.25947 335.3977 341.50285 344.61613 350.75437 356.73805 360.44749 363.45036 366.56364 370.15165 378.06733 380.46299 386.60124 390.16716 397.48667 403.6249 406.6057 410.31517">Alle verwendeten Hilfsmittel werden in der Arbeit aufgef&#x00fc;hrt. Die Betre</tspan></text>
</g>
<g clip-path="url(#clip_289)">
<text xml:space="preserve" transform="matrix(1 0 -0 1 0 841.92)" font-size="11.04" font-family="ArialMT"><tspan y="-620.98" x="416.71 422.84825 428.95338 434.9481 441.08634 444.65226 450.7905 454.46684 457.6022 463.74046 466.12507 472.11979 475.23307 478.82109 484.95933 491.06446 494.6635 500.1835 506.32176 509.88768 516.0259 518.4105">uung erfolgt durch die</tspan></text>
</g>
<g clip-path="url(#clip_290)">
<text xml:space="preserve" transform="matrix(1 0 -0 1 0 841.92)" font-size="11.04" font-family="ArialMT"><tspan y="-620.98" x="524.5"> </tspan></text>
</g>
<g clip-path="url(#clip_291)">
<text xml:space="preserve" transform="matrix(1 0 -0 1 0 841.92)" font-size="11.04" font-family="ArialMT"><tspan y="-607.3" x="70.824 76.962238 83.06735 89.20559 95.31071 101.448947 107.55406 110.66734 116.80558 120.61438 127.9339 134.07215 137.05295 140.76239 146.90064 153.00576 159.144 165.24912 171.38736 176.90737 183.01248 189.0072 192.60623 198.12624 204.26448 210.3696 213.48288 217.31377 224.63329 230.15329 233.98418 241.89986 247.89458 251.60402 257.74226 263.84739 269.98564 273.79444 281.7101 287.84837 293.36836 299.47349 305.61174 311.5954 314.59828 316.99394 319.3896 324.90959 331.04783 337.15296 340.98384 348.30335 354.4416 358.11793 364.25617 367.36946 373.5077 379.61283 385.75108 391.27107 394.34019 400.368 403.96708 413.1965 415.59217 421.7304 427.83555 431.6664 437.06498 443.20323 446.87956 453.0178 455.4245 461.56275 467.66789 473.80613 477.48246 480.61784 484.4487 490.44343 496.58168 502.6868 506.51768 512.03768 518.1759">genannte Betreuungsperson. Es werden w&#x00f6;chentliche Beratungstermine vereinbart und von</tspan></text>
</g>
<g clip-path="url(#clip_292)">
<text xml:space="preserve" transform="matrix(1 0 -0 1 0 841.92)" font-size="11.04" font-family="ArialMT"><tspan y="-607.3" x="524.5"> </tspan></text>
</g>
<g clip-path="url(#clip_293)">
<text xml:space="preserve" transform="matrix(1 0 -0 1 0 841.92)" font-size="11.04" font-family="ArialMT"><tspan y="-593.74" x="70.824 76.962238 83.06735 89.20559 92.27471 99.63839 102.74063 108.87887 114.983989 117.37967 123.51791 127.19423 133.33248 139.47072 145.60897 151.70305 157.69777 160.81105 166.9493 170.62561 176.65346 179.76674 185.90499 191.28147 197.41971 199.80435 202.20003 204.5957 210.73395 214.41027 217.54563">den Studierenden protokolliert.</tspan></text>
</g>
<g clip-path="url(#clip_294)">
<text xml:space="preserve" transform="matrix(1 0 -0 1 0 841.92)" font-size="11.04" font-family="ArialMT"><tspan y="-593.74" x="220.73"> </tspan></text>
</g>
</g>
</svg>
